<svg width="19" height="20" viewBox="0 0 19 20" fill="none" xmlns="http://www.w3.org/2000/svg">
<path d="M0.249954 7.6499C0.133288 7.56657 0.062621 7.46224 0.0379543 7.3369C0.012621 7.21224 0.0499543 7.08324 0.149954 6.9499C1.18329 5.53324 2.47895 4.43324 4.03695 3.6499C5.59562 2.86657 7.25829 2.4749 9.02495 2.4749C10.7916 2.4749 12.4583 2.8539 14.025 3.6119C15.5916 4.37057 16.9 5.46657 17.95 6.8999C18.0666 7.0499 18.104 7.18324 18.062 7.2999C18.0206 7.41657 17.95 7.51657 17.85 7.5999C17.75 7.68324 17.6333 7.72057 17.5 7.7119C17.3666 7.7039 17.25 7.63324 17.15 7.4999C16.2333 6.1999 15.0543 5.2039 13.613 4.5119C12.171 3.82057 10.6416 3.4749 9.02495 3.4749C7.40829 3.4749 5.89162 3.82057 4.47495 4.5119C3.05829 5.2039 1.88329 6.1999 0.949954 7.4999C0.849954 7.6499 0.733287 7.73324 0.599954 7.7499C0.466621 7.76657 0.349954 7.73324 0.249954 7.6499ZM11.85 19.9749C10.1166 19.5416 8.69995 18.6789 7.59995 17.3869C6.49995 16.0956 5.94995 14.5166 5.94995 12.6499C5.94995 11.8166 6.24995 11.1166 6.84995 10.5499C7.44995 9.98324 8.17495 9.6999 9.02495 9.6999C9.87495 9.6999 10.6 9.98324 11.2 10.5499C11.8 11.1166 12.1 11.8166 12.1 12.6499C12.1 13.1999 12.3083 13.6626 12.725 14.0379C13.1416 14.4126 13.6333 14.5999 14.2 14.5999C14.7666 14.5999 15.25 14.4126 15.65 14.0379C16.05 13.6626 16.25 13.1999 16.25 12.6499C16.25 10.7166 15.5416 9.09157 14.125 7.7749C12.7083 6.45824 11.0166 5.7999 9.04995 5.7999C7.08329 5.7999 5.39162 6.45824 3.97495 7.7749C2.55829 9.09157 1.84995 10.7082 1.84995 12.6249C1.84995 13.0249 1.88762 13.5249 1.96295 14.1249C2.03762 14.7249 2.21662 15.4249 2.49995 16.2249C2.54995 16.3749 2.54595 16.5082 2.48795 16.6249C2.42929 16.7416 2.33329 16.8249 2.19995 16.8749C2.06662 16.9249 1.93729 16.9206 1.81195 16.8619C1.68729 16.8039 1.59995 16.7082 1.54995 16.5749C1.29995 15.9249 1.12095 15.2789 1.01295 14.6369C0.904288 13.9956 0.849954 13.3332 0.849954 12.6499C0.849954 10.4332 1.65429 8.5749 3.26295 7.0749C4.87095 5.5749 6.79162 4.8249 9.02495 4.8249C11.275 4.8249 13.2083 5.5749 14.825 7.0749C16.4416 8.5749 17.25 10.4332 17.25 12.6499C17.25 13.4832 16.9543 14.1792 16.363 14.7379C15.771 15.2959 15.05 15.5749 14.2 15.5749C13.35 15.5749 12.621 15.2959 12.013 14.7379C11.4043 14.1792 11.1 13.4832 11.1 12.6499C11.1 12.0999 10.896 11.6372 10.488 11.2619C10.0793 10.8872 9.59162 10.6999 9.02495 10.6999C8.45829 10.6999 7.97062 10.8872 7.56195 11.2619C7.15395 11.6372 6.94995 12.0999 6.94995 12.6499C6.94995 14.2666 7.42929 15.6166 8.38795 16.6999C9.34595 17.7832 10.5833 18.5416 12.1 18.9749C12.25 19.0249 12.35 19.1082 12.4 19.2249C12.45 19.3416 12.4583 19.4666 12.425 19.5999C12.3916 19.7166 12.325 19.8166 12.225 19.8999C12.125 19.9832 12 20.0082 11.85 19.9749ZM3.49995 2.4249C3.36662 2.50824 3.23329 2.5289 3.09995 2.4869C2.96662 2.44557 2.86662 2.35824 2.79995 2.2249C2.73329 2.09157 2.71662 1.97057 2.74995 1.8619C2.78329 1.7539 2.86662 1.65824 2.99995 1.5749C3.93329 1.0749 4.90829 0.691569 5.92495 0.424902C6.94162 0.158236 7.97495 0.0249023 9.02495 0.0249023C10.0916 0.0249023 11.1333 0.153902 12.15 0.411902C13.1666 0.670569 14.15 1.04157 15.1 1.5249C15.25 1.60824 15.3376 1.70824 15.363 1.8249C15.3876 1.94157 15.375 2.05824 15.325 2.1749C15.275 2.29157 15.1916 2.38324 15.075 2.4499C14.9583 2.51657 14.8166 2.50824 14.65 2.4249C13.7666 1.9749 12.854 1.6289 11.912 1.3869C10.9706 1.14557 10.0083 1.0249 9.02495 1.0249C8.05829 1.0249 7.10829 1.13724 6.17495 1.3619C5.24162 1.58724 4.34995 1.94157 3.49995 2.4249ZM6.44995 19.6249C5.46662 18.5916 4.71262 17.5372 4.18795 16.4619C3.66262 15.3872 3.39995 14.1166 3.39995 12.6499C3.39995 11.1332 3.94995 9.8539 5.04995 8.8119C6.14995 7.77057 7.47495 7.2499 9.02495 7.2499C10.575 7.2499 11.9083 7.77057 13.025 8.8119C14.1416 9.8539 14.7 11.1332 14.7 12.6499C14.7 12.7999 14.654 12.9206 14.562 13.0119C14.4706 13.1039 14.35 13.1499 14.2 13.1499C14.0666 13.1499 13.95 13.1039 13.85 13.0119C13.75 12.9206 13.7 12.7999 13.7 12.6499C13.7 11.3999 13.2373 10.3539 12.312 9.5119C11.3873 8.67057 10.2916 8.2499 9.02495 8.2499C7.75829 8.2499 6.67062 8.67057 5.76195 9.5119C4.85395 10.3539 4.39995 11.3999 4.39995 12.6499C4.39995 13.9999 4.63329 15.1456 5.09995 16.0869C5.56662 17.0289 6.24995 17.9749 7.14995 18.9249C7.24995 19.0249 7.29995 19.1416 7.29995 19.2749C7.29995 19.4082 7.24995 19.5249 7.14995 19.6249C7.04995 19.7249 6.93329 19.7749 6.79995 19.7749C6.66662 19.7749 6.54995 19.7249 6.44995 19.6249ZM14 17.9249C12.5166 17.9249 11.229 17.4249 10.137 16.4249C9.04562 15.4249 8.49995 14.1666 8.49995 12.6499C8.49995 12.5166 8.54562 12.3999 8.63695 12.2999C8.72895 12.1999 8.84995 12.1499 8.99995 12.1499C9.14995 12.1499 9.27095 12.1999 9.36295 12.2999C9.45429 12.3999 9.49995 12.5166 9.49995 12.6499C9.49995 13.8999 9.94995 14.9249 10.85 15.7249C11.75 16.5249 12.8 16.9249 14 16.9249C14.1 16.9249 14.2416 16.9166 14.425 16.8999C14.6083 16.8832 14.8 16.8582 15 16.8249C15.15 16.7916 15.2793 16.8122 15.388 16.8869C15.496 16.9622 15.5666 17.0749 15.6 17.2249C15.6333 17.3582 15.6083 17.4749 15.525 17.5749C15.4416 17.6749 15.3333 17.7416 15.2 17.7749C14.9 17.8582 14.6376 17.9042 14.413 17.9129C14.1876 17.9209 14.05 17.9249 14 17.9249Z" fill="#7800FD"/>
</svg>
