<svg width="50" height="40" viewBox="0 0 50 40" fill="none" xmlns="http://www.w3.org/2000/svg">
<path d="M24.0816 18.1038L23.8643 18.5541L24.1841 18.7084L24.4352 18.4574L24.0816 18.1038ZM30.7349 11.4506L31.0884 11.097L30.7349 10.7435L30.3813 11.097L30.7349 11.4506ZM33.3276 14.0433L33.6811 14.3969L34.0347 14.0433L33.6811 13.6898L33.3276 14.0433ZM32.0419 15.329L31.6884 14.9754L31.3348 15.329L31.6884 15.6825L32.0419 15.329ZM34.6347 17.9217L34.9882 18.2752L35.3418 17.9217L34.9882 17.5681L34.6347 17.9217ZM32.0634 20.493L31.7098 20.8465L32.0634 21.2001L32.4169 20.8465L32.0634 20.493ZM29.4706 17.9003L29.8242 17.5467L29.4706 17.1932L29.1171 17.5467L29.4706 17.9003ZM26.6744 20.6965L26.3208 20.343L26.0697 20.5941L26.224 20.9138L26.6744 20.6965ZM23.0426 24.3287L22.689 23.9752L22.689 23.9752L23.0426 24.3287ZM20.4499 21.736L20.8034 22.0895L20.4499 21.736ZM24.2989 17.6535C22.078 16.5818 19.3377 16.9552 17.5034 18.7895L18.2105 19.4966C19.7317 17.9754 22.0105 17.6595 23.8643 18.5541L24.2989 17.6535ZM30.3813 11.097L23.7281 17.7503L24.4352 18.4574L31.0884 11.8041L30.3813 11.097ZM33.6811 13.6898L31.0884 11.097L30.3813 11.8041L32.974 14.3969L33.6811 13.6898ZM32.3955 15.6825L33.6811 14.3969L32.974 13.6898L31.6884 14.9754L32.3955 15.6825ZM34.9882 17.5681L32.3955 14.9754L31.6884 15.6825L34.2811 18.2752L34.9882 17.5681ZM32.4169 20.8465L34.9882 18.2752L34.2811 17.5681L31.7098 20.1394L32.4169 20.8465ZM29.1171 18.2538L31.7098 20.8465L32.4169 20.1394L29.8242 17.5467L29.1171 18.2538ZM27.0279 21.0501L29.8242 18.2538L29.1171 17.5467L26.3208 20.343L27.0279 21.0501ZM25.9887 27.2748C27.823 25.4405 28.1964 22.7001 27.1247 20.4792L26.224 20.9138C27.1186 22.7677 26.8028 25.0464 25.2816 26.5677L25.9887 27.2748ZM17.5355 27.2426C19.8735 29.5806 23.6629 29.6006 25.9887 27.2748L25.2816 26.5677C23.3518 28.4974 20.1956 28.4885 18.2426 26.5355L17.5355 27.2426ZM17.5034 18.7895C15.1776 21.1153 15.1976 24.9047 17.5355 27.2426L18.2426 26.5355C16.2897 24.5825 16.2808 21.4263 18.2105 19.4966L17.5034 18.7895ZM22.689 23.9752C22.18 24.4843 21.3346 24.485 20.8141 23.9645L20.107 24.6716C21.0125 25.577 22.491 25.5874 23.3961 24.6823L22.689 23.9752ZM22.6783 22.1003C23.1988 22.6208 23.1981 23.4661 22.689 23.9752L23.3961 24.6823C24.3013 23.7771 24.2909 22.2986 23.3854 21.3932L22.6783 22.1003ZM20.8034 22.0895C21.3125 21.5805 22.1578 21.5798 22.6783 22.1003L23.3854 21.3932C22.4799 20.4877 21.0014 20.4773 20.0963 21.3824L20.8034 22.0895ZM20.8141 23.9645C20.2936 23.4439 20.2943 22.5986 20.8034 22.0895L20.0963 21.3824C19.1912 22.2876 19.2015 23.7661 20.107 24.6716L20.8141 23.9645Z" fill="#7800FD"/>
</svg>
